<svg width="256" height="256" version="1.1" viewBox="0 0 67.733 67.733" id="svg13682" xmlns="http://www.w3.org/2000/svg"><g id="g13680"><circle style="fill:#000;fill-opacity:1;stroke-width:.31779px" id="path13740" cx="33.867" cy="33.867" r="33.073"/><g transform="matrix(1.7672 0 0 1.7672 12.66 12.66)" fill="#00bf49" stroke-width=".265" id="g13678" color="#000"><path d="M12 9.25A3.761 3.761 0 0 0 8.25 13 3.761 3.761 0 0 0 12 16.75 3.761 3.761 0 0 0 15.75 13 3.761 3.761 0 0 0 12 9.25zm0 1.5c1.252 0 2.25.998 2.25 2.25s-.998 2.25-2.25 2.25A2.239 2.239 0 0 1 9.75 13c0-1.252.998-2.25 2.25-2.25z" style="-inkscape-stroke:none;fill:#bf0a00;fill-opacity:1" id="path13672"/><path d="M10.367 2.25c-1.335 0-2.504.933-2.77 2.236-.058.288-.332.526-.619.526h-.033c-1.427.062-2.489.239-3.38.824a5.154 5.154 0 0 0-1.436 1.408c-.931 1.368-.88 3.055-.88 6.12a.75.75 0 0 0 .75.75.75.75 0 0 0 .75-.75c0-3.065.053-4.443.62-5.276a3.652 3.652 0 0 1 1.018-.998c.548-.36 1.29-.522 2.625-.58l-.034.002c1.031 0 1.89-.746 2.09-1.727.122-.6.657-1.035 1.299-1.035h3.266c.641 0 1.176.435 1.298 1.035.2.981 1.06 1.727 2.09 1.727l-.033-.002c1.334.058 2.076.22 2.625.58.403.265.75.603 1.018.998.566.833.619 2.211.619 5.275 0 3.065-.053 4.443-.62 5.276a3.654 3.654 0 0 1-1.017.998c-.854.56-2.27.613-5.39.613H9.776c-3.12 0-4.536-.053-5.39-.613a3.653 3.653 0 0 1-1.018-.998 2.654 2.654 0 0 1-.37-.834.75.75 0 0 0-.917-.53.75.75 0 0 0-.53.92c.127.47.314.9.577 1.287.38.559.868 1.038 1.435 1.41 1.388.911 3.092.858 6.213.858h4.445c3.121 0 4.825.053 6.213-.857a5.164 5.164 0 0 0 1.436-1.41c.93-1.369.879-3.055.879-6.12 0-3.064.052-4.75-.88-6.119a5.157 5.157 0 0 0-1.435-1.408c-.892-.585-1.953-.762-3.38-.824h-.034c-.287 0-.56-.238-.619-.526-.266-1.303-1.435-2.236-2.77-2.236z" stroke-linecap="round" style="-inkscape-stroke:none;fill:#bf0a00;fill-opacity:1" id="path13674"/><path d="M18 9.25a.75.75 0 0 0-.75.75.75.75 0 0 0 .75.75h1a.75.75 0 0 0 .75-.75.75.75 0 0 0-.75-.75Z" stroke-linecap="round" style="-inkscape-stroke:none;fill:#bf0a00;fill-opacity:1" id="path13676"/></g></g></svg>