<svg width="256mm" height="256mm" version="1.1" viewBox="0 0 256 256" xmlns="http://www.w3.org/2000/svg">
	<g transform="matrix(8.8194 0 0 8.8194 15.04 21.621)" fill="none">
		<g transform="matrix(1.3188 0 0 1.3188 -3.0174 -3.7645)" fill="#fff" stroke-linecap="round">
			<path d="m18.115 1.2598c-1.2355 0.062621-2.4838 0.59729-3.4492 1.5664a0.75 0.75 0 0 0 2e-3 1.0605 0.75 0.75 0 0 0 1.0605-0.00195c1.4159-1.4213 3.5052-1.4974 4.6934-0.30469 1.1882 1.1927 1.1131 3.2994-0.30273 4.7207l-2.4238 2.4316a0.75 0.75 0 0 0 2e-3 1.0625 0.75 0.75 0 0 0 1.0605-0.0039l2.4237-2.4316c1.9307-1.9382 2.1266-5.007 0.30273-6.8379-0.91192-0.91543-2.1336-1.3243-3.3691-1.2617zm-5.6172 4.0527a0.75 0.75 0 0 0-0.5293 0.2207l-2.1504 2.1582c-1.9308 1.9382-2.1265 5.007-0.30273 6.8379a0.75 0.75 0 0 0 1.0605 2e-3 0.75 0.75 0 0 0 2e-3 -1.0605c-1.1882-1.1928-1.1132-3.2994 0.30269-4.7208l2.1504-2.1582a0.75 0.75 0 0 0-0.001953-1.0605 0.75 0.75 0 0 0-0.53125-0.21875z" color="#000000" style="-inkscape-stroke:none"/>
			<path d="m13.424 9.4688a0.75 0.75 0 0 0-2e-3 1.0605c1.1881 1.1927 1.1131 3.2993-0.30273 4.7207l-2.4238 2.4336-2.4238 2.4316c-1.4158 1.4213-3.5052 1.4974-4.6933 0.30469-1.1881-1.1927-1.1131-3.2993 0.30273-4.7207l2.4238-2.4336a0.75 0.75 0 0 0-0.00195-1.0605 0.75 0.75 0 0 0-1.0605 2e-3l-2.4238 2.4336c-1.9307 1.9382-2.1265 5.007-0.30273 6.8379 1.8238 1.8309 4.8876 1.6336 6.8184-0.30469l2.4238-2.4316 2.4238-2.4336c1.9307-1.9382 2.1266-5.007 0.30273-6.8379a0.75 0.75 0 0 0-1.0606-2e-3z" color="#000000" style="-inkscape-stroke:none"/>
		</g>
	</g>
</svg>
