<?xml version="1.0" encoding="UTF-8" standalone="no"?>
<svg
   width="256"
   height="256"
   version="1.1"
   viewBox="0 0 67.733 67.733"
   id="svg13682"
   sodipodi:docname="favicon-new.svg"
   inkscape:version="1.2.2 (732a01da63, 2022-12-09, custom)"
   xmlns:inkscape="http://www.inkscape.org/namespaces/inkscape"
   xmlns:sodipodi="http://sodipodi.sourceforge.net/DTD/sodipodi-0.dtd"
   xmlns="http://www.w3.org/2000/svg"
   xmlns:svg="http://www.w3.org/2000/svg">
  <defs
     id="defs13686" />
  <sodipodi:namedview
     id="namedview13684"
     pagecolor="#ffffff"
     bordercolor="#000000"
     borderopacity="0.25"
     inkscape:showpageshadow="2"
     inkscape:pageopacity="0.0"
     inkscape:pagecheckerboard="0"
     inkscape:deskcolor="#d1d1d1"
     showgrid="false"
     inkscape:zoom="3.7748731"
     inkscape:cx="240.67034"
     inkscape:cy="164.6413"
     inkscape:window-width="3778"
     inkscape:window-height="2096"
     inkscape:window-x="3902"
     inkscape:window-y="27"
     inkscape:window-maximized="1"
     inkscape:current-layer="g13678" />
  <g
     id="g13680">
    <circle
       style="fill:#000000;fill-opacity:1;stroke-width:0.31779"
       id="path13740"
       cx="33.866501"
       cy="33.866501"
       r="33.072754" />
    <g
       transform="matrix(1.7672087,0,0,1.7672087,12.660438,12.659512)"
       fill="#00bf49"
       stroke-width="0.26458"
       id="g13678">
      <path
         d="m 12,9.25 c -2.0622,0 -3.75,1.6878 -3.75,3.75 0,2.0622 1.6878,3.75 3.75,3.75 2.0622,0 3.75,-1.6878 3.75,-3.75 0,-2.0622 -1.6878,-3.75 -3.75,-3.75 z m 0,1.5 c 1.2515,0 2.25,0.99848 2.25,2.25 0,1.25152 -0.99848,2.25 -2.25,2.25 -1.25152,0 -2.25,-0.99848 -2.25,-2.25 0,-1.25152 0.99848,-2.25 2.25,-2.25 z"
         color="#000000"
         style="-inkscape-stroke:none;fill:#bf0a00;fill-opacity:1"
         id="path13672" />
      <path
         d="M 10.367,2.25 C 9.0322,2.25 7.8629,3.18314 7.5975,4.4863 7.538901,4.77397 7.26521,5.01169 6.97836,5.01169 H 6.945157 c -1.4274,0.062414 -2.489,0.23915 -3.3809,0.82422 -0.56705,0.372 -1.0555,0.84977 -1.4355,1.4082 -0.93117,1.3683 -0.87891,3.0549 -0.87891,6.1191 a 0.75,0.75 0 0 0 0.75,0.75 0.75,0.75 0 0 0 0.75,-0.75 c 0,-3.0642 0.052274,-4.4424 0.61914,-5.2754 0.26847,-0.39449 0.61405,-0.73333 1.0176,-0.99805 0.54879,-0.36003 1.2911,-0.52175 2.625,-0.58008 L 6.978384,6.51163 c 1.0308,0 1.89,-0.7456 2.0898,-1.7266 0.12217,-0.59975 0.6571,-1.0352 1.2988,-1.0352 h 3.2656 c 0.64166,0 1.1766,0.43536 1.2988,1.0352 0.1998,0.98092 1.059,1.7266 2.0898,1.7266 l -0.0332,-0.00195 c 1.3339,0.058326 2.0761,0.22 2.625,0.58008 0.40348,0.26474 0.74907,0.60355 1.0176,0.99805 0.56685,0.83295 0.61914,2.2112 0.61914,5.2754 0,3.0643 -0.05229,4.4425 -0.61914,5.2754 -0.26852,0.39446 -0.61407,0.73326 -1.0176,0.99805 -0.85408,0.5603 -2.2695,0.61328 -5.3906,0.61328 h -4.4453 c -3.121,0 -4.5365,-0.05299 -5.3906,-0.61328 -0.40356,-0.26477 -0.7491,-0.6036 -1.0176,-0.99805 -0.16013,-0.23532 -0.27784,-0.49494 -0.36914,-0.83398 a 0.75,0.75 0 0 0 -0.91797,-0.5293 0.75,0.75 0 0 0 -0.5293,0.91992 c 0.12656,0.46995 0.31318,0.90063 0.57617,1.2871 0.38004,0.55835 0.86852,1.0381 1.4355,1.4102 1.3879,0.9105 3.0919,0.85742 6.2129,0.85742 h 4.4453 c 3.1211,0 4.825,0.05308 6.2129,-0.85742 0.56689,-0.37201 1.0555,-0.85182 1.4355,-1.4102 0.93115,-1.3683 0.87891,-3.0548 0.87891,-6.1191 0,-3.0642 0.05224,-4.7509 -0.87891,-6.1191 -0.38009,-0.55842 -0.86862,-1.0362 -1.4355,-1.4082 -0.89186,-0.58502 -1.9534,-0.7618 -3.3809,-0.82422 h -0.03321 c -0.28693,0 -0.56054,-0.23767 -0.61914,-0.52539 -0.26556,-1.3031 -1.4348,-2.2363 -2.7695,-2.2363 z"
         color="#000000"
         stroke-linecap="round"
         style="-inkscape-stroke:none;fill:#bf0a00;fill-opacity:1"
         id="path13674" />
      <path
         d="M 18,9.25 A 0.75,0.75 0 0 0 17.25,10 0.75,0.75 0 0 0 18,10.75 h 1 A 0.75,0.75 0 0 0 19.75,10 0.75,0.75 0 0 0 19,9.25 Z"
         color="#000000"
         stroke-linecap="round"
         style="-inkscape-stroke:none;fill:#bf0a00;fill-opacity:1"
         id="path13676" />
    </g>
  </g>
</svg>
